<?xml version="1.0" encoding="UTF-8" standalone="no"?>
<svg xmlns:dc="http://purl.org/dc/elements/1.1/"
  xmlns:cc="http://creativecommons.org/ns#"
  xmlns:rdf="http://www.w3.org/1999/02/22-rdf-syntax-ns#"
  xmlns:svg="http://www.w3.org/2000/svg"
  xmlns="http://www.w3.org/2000/svg" viewBox="0 0 2990.3333 2472.2666" height="2472.2666" width="2990.3333" xml:space="preserve" id="svg2" version="1.1">
  <metadata id="metadata8">
    <rdf:RDF>
      <cc:Work rdf:about="">
        <dc:format>image/svg+xml</dc:format>
        <dc:type rdf:resource="http://purl.org/dc/dcmitype/StillImage" />
      </cc:Work>
    </rdf:RDF>
  </metadata>
  <defs id="defs6">
    <clipPath id="clipPath18" clipPathUnits="userSpaceOnUse">
      <path id="path16" d="M 0,1854.2 H 2242.751 V 0 H 0 Z" />
    </clipPath>
  </defs>
  <g transform="matrix(1.3333333,0,0,-1.3333333,0,2472.2667)" id="g10">
    <g id="g12">
      <g clip-path="url(#clipPath18)" id="g14">
        <g transform="translate(1121.3756,854.8817)" id="g20">
          <path id="path22" style="fill:#2b2b2a;fill-opacity:1;fill-rule:nonzero;stroke:none" d="m 0,0 c -70.274,0 -127.243,56.97 -127.243,127.244 0,70.274 56.969,127.243 127.243,127.243 70.275,0 127.244,-56.969 127.244,-127.243 C 127.244,56.97 70.275,0 0,0 M 126.373,322.672 H 55.245 v 13.811 H 26.242 v 51.102 h -52.483 v -51.102 h -29.004 v -13.811 h -71.128 c -46.91,0 -84.939,-38.028 -84.939,-84.939 V 16.754 c 0,-46.91 38.029,-84.939 84.939,-84.939 h 252.746 c 46.91,0 84.938,38.029 84.938,84.939 v 220.979 c 0,46.911 -38.028,84.939 -84.938,84.939" />
        </g>
        <g transform="translate(1287.8009,768.3134)" id="g24">
          <path id="path26" style="fill:#2b2b2a;fill-opacity:1;fill-rule:nonzero;stroke:none" d="M 0,0 V -46.271 C 0,-107.198 -49.396,-156.58 -110.322,-156.58 h -112.22 c -60.926,0 -110.309,49.382 -110.309,110.309 V 0 c 38.839,-2.991 92.438,-4.665 166.426,-4.665 C -92.438,-4.665 -38.839,-2.991 0,0" />
        </g>
        <g transform="translate(1150.7365,471.7518)" id="g28">
          <path id="path30" style="fill:#2b2b2a;fill-opacity:1;fill-rule:nonzero;stroke:none" d="m 0,0 v 28.398 h -58.721 v -28.43 c -228.62,14.518 -411.465,197.4 -425.988,426.019 h 28.399 v 58.721 h -28.399 c 14.522,228.62 197.367,411.502 425.988,426.021 V 882.298 H 0 v 28.431 C 228.62,896.21 411.465,713.328 425.987,484.708 H 397.589 V 425.987 H 426.02 C 411.501,197.367 228.619,14.522 0,0 m 425.497,647.518 c -24.866,58.79 -60.456,111.581 -105.782,156.906 -45.325,45.326 -98.116,80.916 -156.906,105.782 -60.886,25.752 -125.541,38.811 -192.17,38.811 -66.628,0 -131.283,-13.059 -192.169,-38.811 -58.79,-24.866 -111.582,-60.456 -156.907,-105.782 -45.326,-45.325 -80.916,-98.116 -105.781,-156.906 -25.753,-60.887 -38.811,-125.542 -38.811,-192.17 0,-66.628 13.058,-131.283 38.811,-192.169 24.865,-58.789 60.456,-111.582 105.781,-156.907 45.325,-45.326 98.117,-80.916 156.907,-105.783 60.886,-25.751 125.541,-38.809 192.169,-38.809 66.629,0 131.284,13.058 192.17,38.809 58.79,24.867 111.581,60.457 156.906,105.783 45.326,45.325 80.916,98.118 105.782,156.907 25.752,60.886 38.811,125.541 38.811,192.169 0,66.628 -13.059,131.283 -38.811,192.17" />
        </g>
        <g transform="translate(384.0626,101.7206)" id="g32">
          <path id="path34" style="fill:#2b2b2a;fill-opacity:1;fill-rule:nonzero;stroke:none" d="M 0,0 H -65.221 L -168.62,103.575 h -32.345 v 46.31 h 32.345 L -65.221,253.46 H 0 L -130.265,126.729 Z m -219.348,0 h -45.956 v 253.46 h 45.956 z" />
        </g>
        <g transform="translate(624.9733,252.6649)" id="g36">
          <path id="path38" style="fill:#2b2b2a;fill-opacity:1;fill-rule:nonzero;stroke:none" d="m 0,0 c 0,9.072 -1.444,17.292 -4.331,24.657 -2.888,7.362 -6.954,13.667 -12.196,18.911 -5.244,5.243 -11.548,9.308 -18.911,12.197 -7.366,2.886 -15.466,4.33 -24.304,4.33 h -62.216 c -8.956,0 -17.117,-1.444 -24.481,-4.33 -7.365,-2.889 -13.697,-6.954 -19,-12.197 -5.302,-5.244 -9.397,-11.549 -12.284,-18.911 -2.888,-7.365 -4.33,-15.585 -4.33,-24.657 v -48.43 c 0,-9.075 1.442,-17.294 4.33,-24.657 2.887,-7.365 6.982,-13.671 12.284,-18.911 5.303,-5.245 11.635,-9.311 19,-12.196 7.364,-2.889 15.525,-4.33 24.481,-4.33 h 61.863 c 8.954,0 17.114,1.441 24.479,4.33 7.363,2.885 13.699,6.951 19.002,12.196 5.302,5.24 9.395,11.546 12.283,18.911 C -1.444,-65.724 0,-57.505 0,-48.43 Z m 45.956,-48.43 c 0,-15.438 -2.652,-29.636 -7.955,-42.596 -5.302,-12.964 -12.668,-24.158 -22.094,-33.582 -9.428,-9.429 -20.591,-16.765 -33.494,-22.006 -12.903,-5.242 -26.955,-7.866 -42.155,-7.866 h -62.216 c -15.201,0 -29.282,2.624 -42.244,7.866 -12.963,5.241 -24.156,12.577 -33.582,22.006 -9.428,9.424 -16.821,20.618 -22.182,33.582 -5.363,12.96 -8.042,27.158 -8.042,42.596 V 0 c 0,15.316 2.679,29.487 8.042,42.508 5.361,13.019 12.754,24.216 22.182,33.584 9.426,9.366 20.619,16.703 33.582,22.005 12.962,5.302 27.043,7.954 42.244,7.954 h 62.216 c 15.2,0 29.252,-2.652 42.155,-7.954 C -4.684,92.795 6.479,85.458 15.907,76.092 25.333,66.724 32.699,55.527 38.001,42.508 43.304,29.487 45.956,15.316 45.956,0 Z" />
        </g>
        <g transform="translate(982.0084,101.7206)" id="g40">
          <path id="path42" style="fill:#2b2b2a;fill-opacity:1;fill-rule:nonzero;stroke:none" d="M 0,0 H -65.221 L -168.62,103.575 h -32.345 v 46.31 h 32.345 L -65.221,253.46 H 0 L -130.266,126.729 Z m -219.348,0 h -45.954 v 253.46 h 45.954 z" />
        </g>
        <g transform="translate(1276.4738,101.7206)" id="g44">
          <path id="path46" style="fill:#2b2b2a;fill-opacity:1;fill-rule:nonzero;stroke:none" d="M 0,0 H -65.221 L -168.62,103.575 h -32.343 v 46.31 h 32.343 L -65.221,253.46 H 0 L -130.264,126.729 Z m -219.346,0 h -45.955 v 253.46 h 45.955 z" />
        </g>
        <g transform="translate(1517.3849,252.6649)" id="g48">
          <path id="path50" style="fill:#2b2b2a;fill-opacity:1;fill-rule:nonzero;stroke:none" d="m 0,0 c 0,9.072 -1.444,17.292 -4.33,24.657 -2.89,7.362 -6.955,13.667 -12.195,18.911 -5.246,5.243 -11.55,9.308 -18.913,12.197 -7.366,2.886 -15.466,4.33 -24.303,4.33 h -62.217 c -8.956,0 -17.117,-1.444 -24.479,-4.33 -7.366,-2.889 -13.7,-6.954 -19.001,-12.197 -5.303,-5.244 -9.399,-11.549 -12.284,-18.911 -2.889,-7.365 -4.331,-15.585 -4.331,-24.657 v -48.43 c 0,-9.075 1.442,-17.294 4.331,-24.657 2.885,-7.365 6.981,-13.671 12.284,-18.911 5.301,-5.245 11.635,-9.311 19.001,-12.196 7.362,-2.889 15.523,-4.33 24.479,-4.33 h 61.863 c 8.953,0 17.115,1.441 24.481,4.33 7.361,2.885 13.697,6.951 19,12.196 5.302,5.24 9.394,11.546 12.284,18.911 2.886,7.363 4.33,15.582 4.33,24.657 z m 45.955,-48.43 c 0,-15.438 -2.651,-29.636 -7.954,-42.596 -5.302,-12.964 -12.668,-24.158 -22.094,-33.582 -9.428,-9.429 -20.591,-16.765 -33.493,-22.006 -12.904,-5.242 -26.955,-7.866 -42.155,-7.866 h -62.217 c -15.2,0 -29.282,2.624 -42.242,7.866 -12.965,5.241 -24.158,12.577 -33.584,22.006 -9.429,9.424 -16.821,20.618 -22.182,33.582 -5.363,12.96 -8.043,27.158 -8.043,42.596 V 0 c 0,15.316 2.68,29.487 8.043,42.508 5.361,13.019 12.753,24.216 22.182,33.584 9.426,9.366 20.619,16.703 33.584,22.005 12.96,5.302 27.042,7.954 42.242,7.954 h 62.217 c 15.2,0 29.251,-2.652 42.155,-7.954 C -4.684,92.795 6.479,85.458 15.907,76.092 25.333,66.724 32.699,55.527 38.001,42.508 43.304,29.487 45.955,15.316 45.955,0 Z" />
        </g>
        <g transform="translate(1841.546,101.7206)" id="g52">
          <path id="path54" style="fill:#2b2b2a;fill-opacity:1;fill-rule:nonzero;stroke:none" d="m 0,0 h -209.626 c -3.3,0 -6.363,0.588 -9.19,1.767 -2.83,1.176 -5.276,2.797 -7.336,4.861 -2.064,2.06 -3.684,4.507 -4.861,7.335 -1.179,2.828 -1.767,5.891 -1.767,9.191 V 253.46 h 45.955 V 45.955 L 0,45.955 Z" />
        </g>
        <g transform="translate(1916.4874,209.8915)" id="g56">
          <path id="path58" style="fill:#2b2b2a;fill-opacity:1;fill-rule:nonzero;stroke:none" d="M 0,0 H 161.55 V 99.333 H 80.774 c -1.413,0 -4.391,-0.207 -8.925,-0.617 C 67.311,98.301 62.066,97.271 56.118,95.621 50.167,93.97 43.893,91.438 37.294,88.021 30.694,84.602 24.626,79.892 19.089,73.881 13.548,67.872 8.983,60.359 5.392,51.346 1.795,42.331 0,31.4 0,18.559 Z M 207.505,-108.171 H 161.55 v 62.215 H 0 v -62.215 h -45.956 v 126.73 c 0,18.498 3.182,35.527 9.545,51.08 6.363,15.555 15.201,28.927 26.513,40.123 11.312,11.193 24.684,19.911 40.123,26.159 15.434,6.244 32.284,9.368 50.549,9.368 H 184.35 c 3.182,0 6.186,-0.591 9.015,-1.768 2.827,-1.179 5.303,-2.829 7.424,-4.95 2.121,-2.12 3.769,-4.593 4.948,-7.423 1.177,-2.828 1.768,-5.833 1.768,-9.014 z" />
        </g>
        <g transform="translate(269.4386,1607.1908)" id="g60">
          <path id="path62" style="fill:#2b2b2a;fill-opacity:1;fill-rule:nonzero;stroke:none" d="M 0,0 H 161.55 V 99.333 H 80.775 c -1.414,0 -4.391,-0.207 -8.926,-0.618 C 67.312,98.301 62.067,97.27 56.119,95.622 50.167,93.97 43.892,91.438 37.294,88.021 30.694,84.602 24.626,79.892 19.089,73.881 13.549,67.872 8.984,60.36 5.391,51.346 1.795,42.332 0,31.401 0,18.559 Z M 207.505,-108.171 H 161.55 v 62.215 H 0 v -62.215 h -45.955 v 126.73 c 0,18.498 3.182,35.526 9.545,51.08 6.363,15.555 15.2,28.927 26.513,40.123 11.311,11.193 24.684,19.911 40.122,26.158 15.435,6.245 32.284,9.369 50.55,9.369 h 103.576 c 3.181,0 6.186,-0.591 9.014,-1.767 2.828,-1.18 5.302,-2.829 7.424,-4.95 2.12,-2.121 3.769,-4.595 4.949,-7.424 1.176,-2.827 1.767,-5.833 1.767,-9.014 z" />
        </g>
        <path id="path64" style="fill:#2b2b2a;fill-opacity:1;fill-rule:nonzero;stroke:none" d="m 576.63,1499.019 h -45.955 v 253.46 h 45.955 z" />
        <g transform="translate(883.6466,1667.2855)" id="g66">
          <path id="path68" style="fill:#2b2b2a;fill-opacity:1;fill-rule:nonzero;stroke:none" d="m 0,0 c 0,-10.489 -1.298,-19.856 -3.889,-28.104 -2.593,-8.248 -6.098,-15.526 -10.516,-21.827 -4.419,-6.305 -9.517,-11.696 -15.289,-16.173 -5.775,-4.48 -11.815,-8.161 -18.117,-11.047 -6.305,-2.889 -12.668,-4.98 -19.089,-6.275 -6.424,-1.298 -12.461,-1.945 -18.117,-1.945 l 95.975,-82.895 h -71.053 l -95.799,82.895 h -33.052 v 45.956 h 103.929 c 5.772,0.47 11.047,1.68 15.819,3.623 4.772,1.945 8.895,4.565 12.373,7.866 3.474,3.298 6.156,7.275 8.042,11.931 1.884,4.653 2.828,9.986 2.828,15.995 v 28.987 c 0,2.591 -0.326,4.566 -0.972,5.922 -0.65,1.353 -1.475,2.355 -2.474,3.004 -1.003,0.646 -2.064,1.031 -3.182,1.15 -1.122,0.115 -2.152,0.176 -3.093,0.176 h -151.652 v -207.505 h -45.955 V 62.04 c 0,3.181 0.588,6.186 1.767,9.014 1.177,2.828 2.798,5.302 4.861,7.423 2.06,2.121 4.507,3.77 7.335,4.95 2.828,1.177 5.89,1.767 9.191,1.767 h 174.453 c 10.251,0 18.912,-1.856 25.982,-5.568 7.07,-3.711 12.814,-8.368 17.233,-13.962 C -8.042,60.065 -4.86,54.025 -2.917,47.546 -0.973,41.065 0,34.997 0,29.341 Z" />
        </g>
        <g transform="translate(1173.34,1573.6088)" id="g70">
          <path id="path72" style="fill:#2b2b2a;fill-opacity:1;fill-rule:nonzero;stroke:none" d="m 0,0 c 0,-9.076 -1.148,-17.233 -3.446,-24.48 -2.298,-7.248 -5.333,-13.64 -9.103,-19.178 -3.772,-5.54 -8.191,-10.251 -13.257,-14.139 -5.067,-3.89 -10.311,-7.071 -15.73,-9.545 -5.421,-2.475 -10.931,-4.304 -16.527,-5.48 -5.597,-1.179 -10.87,-1.767 -15.818,-1.767 h -177.281 v 45.955 h 177.281 c 8.837,0 15.7,2.59 20.591,7.777 4.889,5.184 7.335,12.135 7.335,20.857 0,4.242 -0.649,8.13 -1.943,11.666 -1.299,3.534 -3.155,6.597 -5.568,9.19 -2.418,2.591 -5.364,4.596 -8.839,6.009 -3.476,1.415 -7.334,2.121 -11.576,2.121 h -105.697 c -7.423,0 -15.438,1.326 -24.038,3.977 -8.603,2.651 -16.587,6.922 -23.95,12.815 -7.366,5.89 -13.494,13.61 -18.382,23.155 -4.891,9.544 -7.335,21.21 -7.335,34.996 0,13.787 2.444,25.421 7.335,34.908 4.888,9.484 11.016,17.202 18.382,23.155 7.363,5.948 15.347,10.251 23.95,12.902 8.6,2.651 16.615,3.977 24.038,3.977 h 156.424 v -45.955 h -156.424 c -8.722,0 -15.527,-2.652 -20.415,-7.955 -4.891,-5.302 -7.335,-12.314 -7.335,-21.032 0,-8.838 2.444,-15.82 7.335,-20.945 4.888,-5.126 11.693,-7.689 20.415,-7.689 h 105.697 0.353 c 4.949,-0.119 10.191,-0.795 15.731,-2.033 5.537,-1.237 11.047,-3.153 16.526,-5.744 5.479,-2.593 10.694,-5.864 15.643,-9.81 4.948,-3.949 9.337,-8.691 13.167,-14.228 3.828,-5.54 6.863,-11.903 9.104,-19.088 C -1.121,17.202 0,9.072 0,0" />
        </g>
        <g transform="translate(1431.5714,1649.9647)" id="g74">
          <path id="path76" style="fill:#2b2b2a;fill-opacity:1;fill-rule:nonzero;stroke:none" d="m 0,0 c 0,9.072 -1.443,17.291 -4.329,24.657 -2.889,7.362 -6.955,13.667 -12.196,18.911 -5.244,5.242 -11.55,9.308 -18.912,12.196 -7.367,2.887 -15.467,4.331 -24.303,4.331 h -62.218 c -8.954,0 -17.117,-1.444 -24.479,-4.331 -7.364,-2.888 -13.699,-6.954 -19.001,-12.196 -5.302,-5.244 -9.398,-11.549 -12.284,-18.911 -2.887,-7.366 -4.329,-15.585 -4.329,-24.657 v -48.43 c 0,-9.075 1.442,-17.294 4.329,-24.657 2.886,-7.366 6.982,-13.671 12.284,-18.912 5.302,-5.244 11.637,-9.31 19.001,-12.195 7.362,-2.889 15.525,-4.331 24.479,-4.331 h 61.865 c 8.952,0 17.114,1.442 24.479,4.331 7.362,2.885 13.699,6.951 19.002,12.195 5.301,5.241 9.394,11.546 12.283,18.912 C -1.443,-65.724 0,-57.505 0,-48.43 Z m 45.957,-48.43 c 0,-15.438 -2.651,-29.636 -7.954,-42.597 -5.302,-12.964 -12.669,-24.157 -22.095,-33.582 -9.429,-9.429 -20.59,-16.765 -33.494,-22.005 -12.903,-5.242 -26.955,-7.866 -42.154,-7.866 h -62.218 c -15.199,0 -29.281,2.624 -42.242,7.866 -12.963,5.24 -24.157,12.576 -33.583,22.005 -9.429,9.425 -16.821,20.618 -22.181,33.582 -5.363,12.961 -8.043,27.159 -8.043,42.597 V 0 c 0,15.315 2.68,29.487 8.043,42.508 5.36,13.019 12.752,24.215 22.181,33.583 9.426,9.367 20.62,16.703 33.583,22.006 12.961,5.302 27.043,7.953 42.242,7.953 h 62.218 c 15.199,0 29.251,-2.651 42.154,-7.953 C -4.682,92.794 6.479,85.458 15.908,76.091 25.334,66.723 32.701,55.527 38.003,42.508 43.306,29.487 45.957,15.315 45.957,0 Z" />
        </g>
        <path id="path78" style="fill:#2b2b2a;fill-opacity:1;fill-rule:nonzero;stroke:none" d="M 1732.579,1602.595 H 1587.29 v 46.309 h 145.289 z m 20.502,103.929 h -184.173 v -207.505 h -45.956 v 230.306 c 0,3.181 0.588,6.187 1.769,9.014 1.177,2.829 2.797,5.302 4.859,7.424 2.061,2.121 4.508,3.77 7.336,4.95 2.828,1.176 5.892,1.767 9.192,1.767 h 206.973 z" />
        <g transform="translate(2019.2677,1706.5243)" id="g80">
          <path id="path82" style="fill:#2b2b2a;fill-opacity:1;fill-rule:nonzero;stroke:none" d="m 0,0 h -101.278 v -207.505 h -45.954 V 0 H -248.687 V 45.956 H 0 Z" />
        </g>
      </g>
    </g>
  </g>
</svg>